HIERARCHY
ROOT SpineBase
{
  OFFSET 0.000000 0.000000 0.000000
  CHANNELS 6 Xposition Yposition Zposition Zrotation Xrotation Yrotation
  JOINT SpineMid
  {
    OFFSET 0.000000 31.771236 0.000000
    CHANNELS 3 Zrotation Xrotation Yrotation
    JOINT SpineShoulder
    {
      OFFSET 0.119965 23.563512 -0.726578
      CHANNELS 3 Zrotation Xrotation Yrotation
      JOINT Neck
      {
        OFFSET 0.072377 7.798109 -0.565821
        CHANNELS 3 Zrotation Xrotation Yrotation
        JOINT Head
        {
          OFFSET 4.333819 13.046639 4.766392
          CHANNELS 3 Zrotation Xrotation Yrotation
          End Site
          {
            OFFSET 0 0 0
          }
        }
      }
      JOINT ShoulderLeft
      {
        OFFSET -12.643323 -2.878206 -9.916887
        CHANNELS 3 Zrotation Xrotation Yrotation
        JOINT ElbowLeft
        {
          OFFSET -6.577625 -25.858352 -6.327188
          CHANNELS 3 Zrotation Xrotation Yrotation
          JOINT WristLeft
          {
            OFFSET 0.128170 -19.747704 -5.774030
            CHANNELS 3 Zrotation Xrotation Yrotation
            JOINT HandLeft
            {
              OFFSET 0.521684 -7.815682 0.147982
              CHANNELS 3 Zrotation Xrotation Yrotation
              JOINT HandTipLeft
              {
                OFFSET 0.433076 -8.193005 -0.082423
                CHANNELS 3 Zrotation Xrotation Yrotation
                End Site
                {
                  OFFSET 0 0 0
                }
              }
              JOINT ThumbLeft
              {
                OFFSET 3.865591 1.271058 0.033390
                CHANNELS 3 Zrotation Xrotation Yrotation
                End Site
                {
                  OFFSET 0 0 0
                }
              }
            }
          }
        }
      }
      JOINT ShoulderRight
      {
        OFFSET 12.952861 -4.533195 11.045627
        CHANNELS 3 Zrotation Xrotation Yrotation
        JOINT ElbowRight
        {
          OFFSET 3.102490 -26.237855 6.181699
          CHANNELS 3 Zrotation Xrotation Yrotation
          JOINT WristRight
          {
            OFFSET 0.936787 -23.710218 -3.364883
            CHANNELS 3 Zrotation Xrotation Yrotation
            JOINT HandRight
            {
              OFFSET -1.031757 -7.941486 -0.400620
              CHANNELS 3 Zrotation Xrotation Yrotation
              JOINT HandTipRight
              {
                OFFSET -0.192689 -7.571843 -0.196158
                CHANNELS 3 Zrotation Xrotation Yrotation
                End Site
                {
                  OFFSET 0 0 0
                }
              }
              JOINT ThumbRight
              {
                OFFSET -3.275437 2.661900 -1.472856
                CHANNELS 3 Zrotation Xrotation Yrotation
                End Site
                {
                  OFFSET 0 0 0
                }
              }
            }
          }
        }
      }
    }
  }
  JOINT HipLeft
  {
    OFFSET -5.568816 1.830570 -7.696426
    CHANNELS 3 Zrotation Xrotation Yrotation
    JOINT KneeLeft
    {
      OFFSET -11.804768 -34.346241 -5.024698
      CHANNELS 3 Zrotation Xrotation Yrotation
      JOINT AnkleLeft
      {
        OFFSET -7.897045 -37.199480 4.284072
        CHANNELS 3 Zrotation Xrotation Yrotation
        JOINT FootLeft
        {
          OFFSET 0.751398 -7.941921 -6.088961
          CHANNELS 3 Zrotation Xrotation Yrotation
          End Site
          {
            OFFSET 0 0 0
          }
        }
      }
    }
  }
  JOINT HipRight
  {
    OFFSET 6.144732 0.234593 0.738400
    CHANNELS 3 Zrotation Xrotation Yrotation
    JOINT KneeRight
    {
      OFFSET -5.529805 -36.895322 2.979358
      CHANNELS 3 Zrotation Xrotation Yrotation
      JOINT AnkleRight
      {
        OFFSET -6.012944 -35.605781 10.424442
        CHANNELS 3 Zrotation Xrotation Yrotation
        JOINT FootRight
        {
          OFFSET 5.063881 -5.340092 -8.323362
          CHANNELS 3 Zrotation Xrotation Yrotation
          End Site
          {
            OFFSET 0 0 0
          }
        }
      }
    }
  }
}
MOTION
Frames: 10
Frame Time: 0.033333
-26.733031 79.431955 325.378887 -0.000000 0.000000 -35.757339 -0.000000 0.000000 35.757339 -0.000000 0.000000 0.000000 -0.000000 0.000000 0.000000 0.000000 0.000000 0.000000 -0.000000 0.000000 0.000000 -0.000000 0.000000 0.000000 -0.000000 0.000000 0.000000 -0.000000 0.000000 0.000000 0.000000 0.000000 0.000000 0.000000 0.000000 0.000000 -0.000000 0.000000 0.000000 -0.000000 0.000000 0.000000 -0.000000 0.000000 0.000000 -0.000000 0.000000 0.000000 0.000000 0.000000 0.000000 0.000000 0.000000 0.000000 -0.000000 0.000000 35.757339 -0.000000 0.000000 0.000000 -0.000000 0.000000 0.000000 0.000000 0.000000 0.000000 -0.000000 0.000000 35.757339 -0.000000 0.000000 0.000000 -0.000000 0.000000 0.000000 0.000000 0.000000 0.000000
-26.456918 79.379122 325.758528 0.130939 -0.174896 -35.622524 -0.208304 0.065903 35.622843 -0.000000 0.000000 0.000000 -0.000000 0.000000 0.000000 0.000000 0.000000 0.000000 -0.000000 0.000000 0.000000 -0.000000 0.000000 0.000000 1.055127 -1.074931 -0.041842 -1.112154 1.974213 0.111271 0.000000 0.000000 0.000000 0.000000 0.000000 0.000000 -0.000000 0.000000 0.000000 -0.000000 0.000000 0.000000 -0.000000 0.000000 0.000000 -2.134853 0.275132 0.053409 0.000000 0.000000 0.000000 0.000000 0.000000 0.000000 -0.208304 0.065903 35.622843 -0.000000 0.000000 0.000000 -0.000000 0.000000 0.000000 0.000000 0.000000 0.000000 -0.208304 0.065903 35.622843 -0.000000 0.000000 0.000000 0.181186 0.785505 0.455684 0.000000 0.000000 0.000000
-26.212346 79.334758 326.094516 0.242424 -0.327545 -35.501195 -0.387571 0.125872 35.502314 -0.000000 0.000000 0.000000 -0.886738 0.359537 0.206546 0.000000 0.000000 0.000000 -0.000000 0.000000 0.000000 -0.000000 0.000000 0.000000 1.924233 -1.921582 -0.059479 -1.940423 3.475254 0.207025 0.000000 0.000000 0.000000 0.000000 0.000000 0.000000 -0.000000 0.000000 0.000000 -0.000000 0.000000 0.000000 -0.000000 0.000000 0.000000 -3.928209 0.490705 0.106041 0.000000 0.000000 0.000000 0.000000 0.000000 0.000000 -1.207303 0.453495 35.321395 0.479467 -0.741217 0.188165 -0.167147 1.421973 0.262306 0.000000 0.000000 0.000000 -0.387571 0.125872 35.502314 -0.000000 0.000000 0.000000 0.302016 1.387698 0.823961 0.000000 0.000000 0.000000
-25.999317 79.298861 326.386851 0.334537 -0.458050 -35.393936 -0.538013 0.179626 35.396117 -0.000000 0.000000 0.000000 -1.251050 0.512671 0.290837 0.000000 0.000000 0.000000 -0.000000 0.000000 0.000000 -0.000000 0.000000 0.000000 2.595669 -2.526556 -0.062147 -2.471505 4.497217 0.271775 0.000000 0.000000 0.000000 0.000000 0.000000 0.000000 -0.000000 0.000000 0.000000 -0.528938 0.960549 0.117334 0.527044 -0.961590 -0.108477 -5.426911 0.653681 0.154832 0.000000 0.000000 0.000000 0.000000 0.000000 0.000000 -1.674345 0.637520 35.147242 0.665682 -1.028475 0.262952 -0.250227 1.965135 0.377197 0.000000 0.000000 0.000000 -1.549323 0.576896 35.218495 0.597187 -0.907701 0.189029 0.367431 1.813249 1.110292 0.000000 0.000000 0.000000
-25.817830 79.271432 326.635533 0.407350 -0.566500 -35.301254 -0.659818 0.226921 35.304574 -0.000000 0.000000 0.000000 -1.562438 0.648348 0.361931 0.000000 0.000000 0.000000 -0.000000 0.000000 0.000000 -0.000000 0.000000 0.000000 3.060894 -2.880962 -0.057253 -2.694942 5.036385 0.295899 0.000000 0.000000 0.000000 0.000000 0.000000 0.000000 -0.000000 0.000000 0.000000 -0.712512 1.204616 0.156011 1.161918 -2.137042 -0.029923 -7.120641 1.703896 0.212192 0.000000 0.000000 0.000000 0.000000 0.000000 0.000000 -2.050923 0.791557 35.001813 0.815868 -1.260272 0.324099 -0.332541 2.399460 0.481370 0.000000 0.000000 0.000000 -1.901724 0.715879 35.088425 0.735309 -1.113861 0.233516 0.380809 2.066939 1.318531 0.000000 0.000000 0.000000
-25.667885 79.252472 326.840561 0.460919 -0.652973 -35.223579 -0.753148 0.267550 35.227964 -0.000000 0.000000 0.000000 -1.820787 0.766763 0.419489 0.000000 0.000000 0.000000 -0.000000 0.000000 0.000000 -0.000000 0.000000 0.000000 3.314533 -2.980039 -0.049822 -2.603931 5.090590 0.276324 0.000000 0.000000 0.000000 0.000000 0.000000 0.000000 -0.000000 0.000000 0.000000 -0.899147 1.411391 0.194169 1.815803 -2.590530 -0.033803 -8.597482 2.017339 0.294825 0.000000 0.000000 0.000000 0.000000 0.000000 0.000000 -2.337428 0.914710 34.884813 0.929823 -1.436689 0.371156 -0.413849 2.726758 0.574877 0.000000 0.000000 0.000000 -2.173041 0.826926 34.982725 0.842904 -1.272174 0.268159 0.344115 2.151604 1.451051 0.000000 0.000000 0.000000
-25.512334 79.230081 327.066077 0.551584 -0.801256 -35.205700 -0.912639 0.336655 35.212238 -0.000000 0.000000 0.000000 -1.939110 0.803202 0.451577 0.000000 0.000000 0.000000 -0.000000 0.000000 0.000000 -0.000000 0.000000 0.000000 3.178382 -3.132380 -0.061866 -1.363530 4.939568 0.184761 0.000000 0.000000 0.000000 0.000000 0.000000 0.000000 -0.000000 0.000000 0.000000 -1.145355 1.613973 0.242068 2.271970 -3.036791 -0.037135 -9.380979 1.660877 0.316556 0.000000 0.000000 0.000000 0.000000 0.000000 0.000000 -2.711237 1.068269 34.827672 1.059121 -1.627344 0.421661 -0.500036 2.970907 0.664540 0.000000 0.000000 0.000000 -2.583193 0.997143 34.927032 0.991929 -1.497628 0.317617 -3.510891 -4.677348 0.983870 0.000000 0.000000 0.000000
-25.410734 79.224401 327.199306 0.615666 -0.903704 -35.272862 -1.024515 0.382202 35.281135 -0.000000 0.000000 0.000000 -2.125643 0.924992 0.482156 0.000000 0.000000 0.000000 -0.000000 0.000000 0.000000 0.252840 -0.897741 -0.077951 2.932442 -1.991299 -0.020276 -0.875994 4.381493 0.121749 0.000000 0.000000 0.000000 0.000000 0.000000 0.000000 -0.627669 0.757232 -0.054314 -0.846422 0.902032 0.338739 2.910768 -3.467347 -0.027801 -11.832861 2.777449 0.521850 0.000000 0.000000 0.000000 0.000000 0.000000 0.000000 -2.924727 1.152035 34.877467 0.411667 -1.330347 0.262735 0.174049 2.611754 0.848756 0.000000 0.000000 0.000000 -2.809088 1.090334 34.978398 1.056790 -1.602832 0.340453 -3.810008 -5.195075 0.933452 0.000000 0.000000 0.000000
-25.344624 79.234006 327.264273 0.612457 -0.904036 -35.210909 -1.021671 0.385431 35.219178 -0.000000 0.000000 0.000000 -2.283936 1.037383 0.505562 0.000000 0.000000 0.000000 -0.000000 0.000000 0.000000 0.322897 -1.031592 -0.098458 2.536460 -1.017678 0.021134 0.320279 3.131177 0.015177 0.000000 0.000000 0.000000 0.000000 0.000000 0.000000 -0.686448 0.879526 -0.052593 -0.957651 1.025079 0.373180 4.470526 -3.598582 -0.069715 -12.386691 2.387596 0.534957 0.000000 0.000000 0.000000 0.000000 0.000000 0.000000 -2.929413 1.142691 34.820182 0.365654 -1.182135 0.220712 0.146709 2.445594 0.949641 0.000000 0.000000 0.000000 -2.812186 1.075434 34.916844 1.073758 -1.590229 0.340064 -2.304668 -2.597718 1.138549 0.000000 0.000000 0.000000
-25.376547 79.267488 327.208386 0.488583 -0.748345 -35.057750 -0.829802 0.331898 35.063344 -0.000000 0.000000 0.000000 -2.340719 0.995364 0.539575 0.000000 0.000000 0.000000 -0.000000 0.000000 0.000000 0.296079 -1.132186 -0.091256 1.917350 0.382964 0.059586 0.451303 0.478246 -0.047059 0.000000 0.000000 0.000000 0.000000 0.000000 0.000000 -0.756265 0.956605 -0.058913 -0.955937 0.934668 0.388313 6.855019 -3.588152 -0.085072 -14.212077 1.958075 0.630965 0.000000 0.000000 0.000000 0.000000 0.000000 0.000000 -2.564017 1.034613 34.694381 0.222470 -0.924738 0.157346 0.095825 2.437844 1.051559 0.000000 0.000000 0.000000 -2.421453 0.924370 34.793418 0.409860 -0.783549 0.021823 1.217482 1.959928 1.598469 0.000000 0.000000 0.000000
